<svg xmlns="http://www.w3.org/2000/svg" xmlns:xlink="http://www.w3.org/1999/xlink" version="1.1" x="0px" y="0px" viewBox="0 0 64 64" enable-background="new 0 0 64 64" xml:space="preserve"><path d="M31.5,8.732v9.845c0.167-0.006,0.331-0.025,0.5-0.025s0.333,0.019,0.5,0.025V8.732c2.184-0.252,3.891-2.091,3.891-4.34  C36.391,1.97,34.421,0,32,0c-2.422,0-4.392,1.97-4.392,4.392C27.608,6.642,29.315,8.48,31.5,8.732z"/><path d="M18.577,32.5c-0.006-0.167-0.025-0.331-0.025-0.5s0.019-0.333,0.025-0.5H8.732c-0.252-2.185-2.09-3.892-4.339-3.892  C1.971,27.608,0,29.578,0,32c0,2.421,1.971,4.391,4.393,4.391c2.249,0,4.087-1.707,4.339-3.891H18.577z"/><path d="M32,19.552c-6.864,0-12.448,5.584-12.448,12.448c0,6.863,5.584,12.447,12.448,12.447c6.863,0,12.447-5.584,12.447-12.447  C44.447,25.136,38.863,19.552,32,19.552z M27.375,36.438l-4.821-4.439l4.822-4.438l0.677,0.735l-4.022,3.702l4.022,3.703  L27.375,36.438z M31.696,36.823l-0.986-0.166l1.595-9.48l0.986,0.166L31.696,36.823z M36.627,36.438l-0.678-0.736l4.021-3.701  l-4.021-3.704l0.678-0.735l4.82,4.439L36.627,36.438z"/><path d="M41.135,22.159c0.244,0.227,0.479,0.462,0.707,0.707l6.964-6.964c0.772,0.615,1.713,0.967,2.716,0.967  c1.173,0,2.276-0.457,3.105-1.286c0.83-0.83,1.287-1.932,1.287-3.105c0-1.173-0.457-2.276-1.287-3.105  c-0.829-0.829-1.933-1.286-3.105-1.286s-2.275,0.457-3.104,1.286c-1.591,1.591-1.684,4.099-0.317,5.821L41.135,22.159z"/><path d="M12.478,16.869c1.003,0,1.944-0.352,2.717-0.967l6.963,6.963c0.228-0.244,0.463-0.479,0.707-0.707l-6.964-6.964  c1.366-1.723,1.273-4.23-0.318-5.821c-0.83-0.829-1.933-1.286-3.105-1.286s-2.275,0.457-3.105,1.286  c-1.711,1.712-1.711,4.498,0,6.21C10.202,16.413,11.305,16.869,12.478,16.869z"/><path d="M59.609,27.608c-2.252,0-4.091,1.708-4.343,3.892h-9.845c0.006,0.167,0.025,0.331,0.025,0.5s-0.02,0.333-0.025,0.5h9.845  c0.252,2.184,2.091,3.891,4.343,3.891C62.03,36.391,64,34.421,64,32C64,29.578,62.03,27.608,59.609,27.608z"/><path d="M51.522,47.131c-1.004,0-1.944,0.352-2.717,0.968l-6.965-6.965c-0.228,0.245-0.462,0.479-0.707,0.707l6.965,6.965  c-0.615,0.772-0.967,1.713-0.967,2.716c-0.001,1.173,0.456,2.276,1.285,3.105s1.932,1.286,3.105,1.286  c1.173,0,2.275-0.457,3.104-1.286c0.83-0.829,1.287-1.932,1.286-3.105c0-1.173-0.457-2.275-1.286-3.104S52.695,47.131,51.522,47.131  z"/><path d="M32.5,55.267v-9.845c-0.167,0.006-0.331,0.025-0.5,0.025s-0.333-0.02-0.5-0.025v9.845c-2.185,0.252-3.892,2.091-3.892,4.342  C27.608,62.03,29.578,64,32,64c2.421,0,4.391-1.97,4.391-4.392C36.391,57.357,34.684,55.519,32.5,55.267z"/><path d="M22.866,41.842c-0.245-0.228-0.48-0.463-0.707-0.707l-6.964,6.964c-0.774-0.615-1.715-0.967-2.718-0.967  c-1.172,0-2.275,0.456-3.104,1.285c-0.829,0.829-1.286,1.932-1.286,3.104c0,1.173,0.456,2.276,1.285,3.105  c0.829,0.83,1.932,1.286,3.105,1.286c1.173,0,2.276-0.456,3.107-1.286c0.829-0.829,1.286-1.933,1.286-3.105  c0-1.003-0.352-1.943-0.967-2.716L22.866,41.842z"/></svg>